<?xml version="1.0" encoding="UTF-8" standalone="no"?>
<svg
   xmlns:dc="http://purl.org/dc/elements/1.1/"
   xmlns:cc="http://creativecommons.org/ns#"
   xmlns:rdf="http://www.w3.org/1999/02/22-rdf-syntax-ns#"
   xmlns:svg="http://www.w3.org/2000/svg"
   xmlns="http://www.w3.org/2000/svg"
   xmlns:sodipodi="http://sodipodi.sourceforge.net/DTD/sodipodi-0.dtd"
   xmlns:inkscape="http://www.inkscape.org/namespaces/inkscape"
   width="256"
   height="256"
   viewBox="0 0 255.99999 255.99999"
   id="svg2"
   version="1.1"
   inkscape:version="1.0.1 (3bc2e813f5, 2020-09-07)"
   sodipodi:docname="icon03.svg"
   inkscape:export-filename="D:\USR_MSM\icons\icon03_01_1000.png"
   inkscape:export-xdpi="240"
   inkscape:export-ydpi="240">
  <defs
     id="defs4" />
  <sodipodi:namedview
     id="base"
     pagecolor="#ffffff"
     bordercolor="#666666"
     borderopacity="1.0"
     inkscape:pageopacity="0"
     inkscape:pageshadow="2"
     inkscape:zoom="1"
     inkscape:cx="111.44376"
     inkscape:cy="238.17018"
     inkscape:document-units="px"
     inkscape:current-layer="layer1"
     showgrid="false"
     units="px"
     inkscape:window-width="1600"
     inkscape:window-height="837"
     inkscape:window-x="-8"
     inkscape:window-y="-8"
     inkscape:window-maximized="1"
     inkscape:document-rotation="0"
     inkscape:snap-global="false"
     inkscape:pagecheckerboard="true" />
  <metadata
     id="metadata7">
    <rdf:RDF>
      <cc:Work
         rdf:about="">
        <dc:format>image/svg+xml</dc:format>
        <dc:type
           rdf:resource="http://purl.org/dc/dcmitype/StillImage" />
        <dc:title></dc:title>
      </cc:Work>
    </rdf:RDF>
  </metadata>
  <g
     inkscape:label="レイヤー 1"
     inkscape:groupmode="layer"
     id="layer1"
     transform="translate(0,-652.36216)">
    <g
       id="g945"
       transform="matrix(0.64,0,0,0.64,0,234.85041)"
       style="stroke-width:1.5625">
      <circle
         style="opacity:1;fill:#ffffff;fill-opacity:1;stroke:none;stroke-width:11.811"
         id="path916"
         cx="200"
         cy="852.36224"
         r="200" />
      <g
         style="font-style:normal;font-weight:normal;font-size:40px;line-height:125%;font-family:sans-serif;text-align:center;letter-spacing:0px;word-spacing:0px;text-anchor:middle;fill:#f61e20;fill-opacity:1;stroke:none;stroke-width:1.5625px;stroke-linecap:butt;stroke-linejoin:miter;stroke-opacity:1"
         id="text4136-8-5"
         transform="matrix(1.1577936,0,0,0.84907867,-47.276509,116.941)">
        <path
           d="m 104.81513,799.51413 h 23.5568 l 33.07012,-114.21737 h 0.90603 l 13.13745,32.7989 29.21949,67.7201 h 16.30855 l 28.99297,-67.7201 13.36395,-32.7989 h 0.90603 l 32.84362,114.21737 h 24.46283 L 285.34174,657.51415 h -30.35203 l -30.12553,71.77172 c -3.85061,9.45381 -7.02172,19.10055 -10.87235,28.74729 h -1.13253 c -3.85064,-9.64674 -7.24825,-19.29348 -11.09888,-28.74729 l -30.57854,-71.77172 h -30.12552 z"
           style="font-style:normal;font-variant:normal;font-weight:500;font-stretch:normal;font-size:125px;font-family:'Source Han Sans JP';-inkscape-font-specification:'Source Han Sans JP Medium';fill:#f61e20;fill-opacity:1;stroke-width:1.5625px"
           id="path4246-2"
           inkscape:connector-curvature="0"
           sodipodi:nodetypes="ccccccccccccccccccccc" />
      </g>
      <g
         aria-label=")"
         transform="scale(1.2025696,0.8315527)"
         id="text4136-4-6-0"
         style="font-style:normal;font-variant:normal;font-weight:bold;font-stretch:normal;font-size:14.8205px;line-height:0%;font-family:'Noto Sans';-inkscape-font-specification:'Noto Sans Bold';text-align:center;letter-spacing:0px;word-spacing:0px;text-anchor:middle;fill:#000000;fill-opacity:1;stroke:none;stroke-width:1.5625px;stroke-linecap:butt;stroke-linejoin:miter;stroke-opacity:1">
        <path
           d="m 298.31791,1041.2287 q 0,23.2691 -6.92306,44.8075 -6.73074,21.3461 -21.34607,38.2691 h -23.26915 q 12.88457,-17.6923 19.61531,-39.2306 6.92305,-21.7307 6.92305,-44.0384 0,-22.8845 -6.92305,-44.61518 -6.73074,-21.73069 -19.80762,-39.80755 h 23.46146 q 14.61533,17.49994 21.34607,39.42294 6.92306,21.73069 6.92306,45.19219 z"
           style="font-style:normal;font-variant:normal;font-weight:bold;font-stretch:normal;font-size:192.307px;line-height:1.25;font-family:'Noto Sans';-inkscape-font-specification:'Noto Sans Bold';stroke-width:1.47412px"
           id="path878" />
      </g>
      <g
         aria-label="ay"
         transform="scale(1.2942147,0.77266933)"
         id="text4136-7-4"
         style="font-style:normal;font-variant:normal;font-weight:bold;font-stretch:normal;font-size:14.0709px;line-height:0%;font-family:'Noto Sans';-inkscape-font-specification:'Noto Sans Bold';text-align:center;letter-spacing:0px;word-spacing:0px;text-anchor:middle;fill:#000000;fill-opacity:1;stroke:none;stroke-width:1.5625px;stroke-linecap:butt;stroke-linejoin:miter;stroke-opacity:1">
        <path
           d="m 122.89408,1019.1186 q 6.37925,0 9.74286,2.7836 3.42159,2.7257 3.42159,8.4091 v 21.1095 h -6.03129 l -1.6818,-4.2915 h -0.23197 q -2.02977,2.5517 -4.2915,3.7115 -2.26174,1.1599 -6.20527,1.1599 -4.23351,0 -7.01718,-2.4357 -2.78367,-2.4357 -2.78367,-7.5971 0,-5.0454 3.53758,-7.4231 3.53759,-2.3778 10.61276,-2.6677 l 5.50935,-0.174 v -1.3918 q 0,-2.4938 -1.33384,-3.6536 -1.27585,-1.1599 -3.59558,-1.1599 -2.31973,0 -4.52347,0.6959 -2.20374,0.638 -4.40748,1.6238 l -2.84167,-5.8573 q 2.49371,-1.2758 5.62534,-2.0297 3.13163,-0.8119 6.49524,-0.8119 z m 4.58146,17.6299 -3.3636,0.116 q -4.17551,0.116 -5.79932,1.5078 -1.62381,1.3918 -1.62381,3.6536 0,1.9717 1.15986,2.8416 1.15986,0.8119 3.01565,0.8119 2.78367,0 4.69745,-1.6238 1.91377,-1.6818 1.91377,-4.6974 z"
           style="font-style:normal;font-variant:normal;font-weight:bold;font-stretch:normal;font-size:57.9932px;line-height:1.25;font-family:'Noto Sans';-inkscape-font-specification:'Noto Sans Bold';letter-spacing:27.2177px;stroke-width:1.5625px"
           id="path881" />
        <path
           d="m 167.62562,1019.7565 h 9.45289 l 5.9733,17.8039 q 0.46394,1.3338 0.69592,2.6677 0.23197,1.3338 0.34795,2.8417 h 0.17398 q 0.17398,-1.5079 0.46395,-2.8417 0.28997,-1.3339 0.75391,-2.6677 l 5.85731,-17.8039 h 9.27892 l -13.39643,35.7238 q -1.85579,4.9294 -5.27738,7.3651 -3.4216,2.4937 -7.94507,2.4937 -1.50783,0 -2.5517,-0.1739 -1.04388,-0.116 -1.85579,-0.29 v -6.8432 q 0.57994,0.116 1.50783,0.232 0.92789,0.116 1.91377,0.116 2.72568,0 4.2915,-1.6818 1.56582,-1.6239 2.37772,-3.9436 l 0.52194,-1.5658 z"
           style="font-style:normal;font-variant:normal;font-weight:bold;font-stretch:normal;font-size:57.9932px;line-height:1.25;font-family:'Noto Sans';-inkscape-font-specification:'Noto Sans Bold';letter-spacing:27.2177px;stroke-width:1.5625px"
           id="path883" />
      </g>
      <g
         aria-label="o"
         transform="rotate(-90)"
         id="text4136-3-5"
         style="font-style:normal;font-variant:normal;font-weight:bold;font-stretch:normal;line-height:0%;font-family:'Noto Sans';-inkscape-font-specification:'Noto Sans Bold';text-align:center;letter-spacing:0px;word-spacing:0px;text-anchor:middle;fill:#000000;fill-opacity:1;stroke:none;stroke-width:1.5625px;stroke-linecap:butt;stroke-linejoin:miter;stroke-opacity:1">
        <path
           d="m -947.83722,257.20563 q 0,7.98346 -4.22654,12.3274 -4.16784,4.34394 -11.38817,4.34394 -4.46134,0 -7.98346,-1.93717 -3.46341,-1.93716 -5.45927,-5.63538 -1.99587,-3.75692 -1.99587,-9.09879 0,-7.98346 4.16784,-12.2687 4.16783,-4.28524 11.44687,-4.28524 4.52004,0 7.98345,1.93716 3.46342,1.93717 5.45928,5.63539 1.99587,3.69822 1.99587,8.98139 z m -22.13062,0 q 0,4.75485 1.52625,7.22033 1.58495,2.40678 5.10706,2.40678 3.46342,0 4.98967,-2.40678 1.58495,-2.46548 1.58495,-7.22033 0,-4.75486 -1.58495,-7.10293 -1.52625,-2.40678 -5.04837,-2.40678 -3.46341,0 -5.04836,2.40678 -1.52625,2.34807 -1.52625,7.10293 z"
           style="font-style:normal;font-variant:normal;font-weight:bold;font-stretch:normal;font-size:58.7019px;line-height:1.25;font-family:'Noto Sans';-inkscape-font-specification:'Noto Sans Bold';stroke-width:1.5625px"
           id="path886" />
      </g>
      <g
         aria-label="Musician"
         transform="scale(1.1539659,0.86657673)"
         id="text4136-9-14"
         style="font-style:normal;font-variant:normal;font-weight:bold;font-stretch:normal;font-size:12.2738px;line-height:0%;font-family:'Noto Sans';-inkscape-font-specification:'Noto Sans Bold';text-align:center;letter-spacing:0px;word-spacing:0px;text-anchor:middle;fill:#000000;fill-opacity:1;stroke:none;stroke-width:1.5625px;stroke-linecap:butt;stroke-linejoin:miter;stroke-opacity:1">
        <path
           d="m 90.185384,1169.0481 -8.575438,-27.92 h -0.199429 q 0.04986,0.9971 0.149572,2.9914 0.09971,1.9943 0.199428,4.2877 0.09972,2.2934 0.09972,4.0883 v 16.5526 H 75.12851 v -35.598 h 10.270583 l 8.425867,27.222 h 0.149572 l 8.924438,-27.222 h 10.27058 v 35.598 h -7.02986 v -16.8517 q 0,-1.6952 0.0499,-3.8889 0.0997,-2.1937 0.14957,-4.1381 0.0997,-1.9943 0.14957,-2.9915 h -0.19943 l -9.173725,27.8702 z"
           style="font-style:normal;font-variant:normal;font-weight:bold;font-stretch:normal;font-family:'Noto Sans';-inkscape-font-specification:'Noto Sans Bold';fill:#f61e20;fill-opacity:1;stroke-width:1.5625px"
           id="path889" />
        <path
           d="m 143.85873,1141.8261 v 27.222 h -5.68372 l -0.99715,-3.49 h -0.39885 q -1.29629,2.094 -3.58972,3.0413 -2.24358,0.9473 -4.78629,0.9473 -4.38744,0 -7.02987,-2.3433 -2.64243,-2.3932 -2.64243,-7.6282 v -17.7491 h 7.42872 v 15.9044 q 0,2.9416 1.047,4.4373 1.04701,1.4459 3.34044,1.4459 3.39029,0 4.63672,-2.2935 1.24643,-2.3433 1.24643,-6.6808 v -12.8133 z"
           style="font-style:normal;font-variant:normal;font-weight:bold;font-stretch:normal;font-size:49.8572px;line-height:1.25;font-family:'Noto Sans';-inkscape-font-specification:'Noto Sans Bold';letter-spacing:-2.84898px;stroke-width:1.65242px"
           id="path891" />
        <path
           d="m 167.78304,1160.9712 q 0,4.1382 -2.94157,6.3818 -2.89172,2.1937 -8.67516,2.1937 -2.84186,0 -4.886,-0.3989 -2.04415,-0.349 -4.08829,-1.1966 v -6.1324 q 2.19371,0.9971 4.73643,1.6453 2.54272,0.6481 4.48715,0.6481 2.14386,0 3.09115,-0.6481 0.94728,-0.6482 0.94728,-1.6952 0,-0.698 -0.39885,-1.2464 -0.349,-0.5484 -1.59543,-1.2464 -1.24643,-0.698 -3.88887,-1.7949 -2.59257,-1.0968 -4.23786,-2.1438 -1.59543,-1.0969 -2.39314,-2.5926 -0.79772,-1.5456 -0.79772,-3.839 0,-3.7892 2.94158,-5.6837 2.94157,-1.8946 7.82758,-1.8946 2.54271,0 4.83614,0.4986 2.29344,0.4985 4.73644,1.6453 l -2.24358,5.3347 q -1.99428,-0.8476 -3.78914,-1.396 -1.79486,-0.5983 -3.63958,-0.5983 -3.29057,0 -3.29057,1.7948 0,0.6482 0.39885,1.1966 0.44872,0.4986 1.64529,1.0969 1.24643,0.5983 3.63958,1.5954 2.34329,0.9473 4.03843,1.9943 1.69515,0.9971 2.59258,2.5427 0.94728,1.5456 0.94728,3.9387 z"
           style="font-style:normal;font-variant:normal;font-weight:bold;font-stretch:normal;font-size:49.8572px;line-height:1.25;font-family:'Noto Sans';-inkscape-font-specification:'Noto Sans Bold';letter-spacing:-2.84898px;stroke-width:1.65242px"
           id="path894" />
        <path
           d="m 174.45678,1131.1566 q 1.64528,0 2.84186,0.7977 1.19657,0.7479 1.19657,2.8419 0,2.0441 -1.19657,2.8419 -1.19658,0.7977 -2.84186,0.7977 -1.69515,0 -2.89172,-0.7977 -1.14672,-0.7978 -1.14672,-2.8419 0,-2.094 1.14672,-2.8419 1.19657,-0.7977 2.89172,-0.7977 z m 3.68943,10.6695 v 27.222 h -7.42872 v -27.222 z"
           style="font-style:normal;font-variant:normal;font-weight:bold;font-stretch:normal;font-size:49.8572px;line-height:1.25;font-family:'Noto Sans';-inkscape-font-specification:'Noto Sans Bold';letter-spacing:-2.84898px;stroke-width:1.65242px"
           id="path896" />
        <path
           d="m 194.14317,1169.5467 q -6.08258,0 -9.42301,-3.3405 -3.29058,-3.3404 -3.29058,-10.6195 0,-4.9858 1.69515,-8.1268 1.69514,-3.141 4.68657,-4.6367 3.04129,-1.4957 6.98001,-1.4957 2.79201,0 4.83615,0.5484 2.094,0.5485 3.63958,1.2963 l -2.19372,5.7336 q -1.745,-0.698 -3.29058,-1.1467 -1.49571,-0.4487 -2.99143,-0.4487 -5.78343,0 -5.78343,8.2264 0,4.0883 1.49571,6.0327 1.54558,1.9444 4.28772,1.9444 2.34329,0 4.13815,-0.5982 1.79486,-0.6482 3.49,-1.745 v 6.3318 q -1.69514,1.0969 -3.58971,1.5456 -1.84472,0.4986 -4.68658,0.4986 z"
           style="font-style:normal;font-variant:normal;font-weight:bold;font-stretch:normal;font-size:49.8572px;line-height:1.25;font-family:'Noto Sans';-inkscape-font-specification:'Noto Sans Bold';letter-spacing:-2.84898px;stroke-width:1.65242px"
           id="path898" />
        <path
           d="m 209.59178,1131.1566 q 1.64529,0 2.84186,0.7977 1.19657,0.7479 1.19657,2.8419 0,2.0441 -1.19657,2.8419 -1.19657,0.7977 -2.84186,0.7977 -1.69515,0 -2.89172,-0.7977 -1.14671,-0.7978 -1.14671,-2.8419 0,-2.094 1.14671,-2.8419 1.19657,-0.7977 2.89172,-0.7977 z m 3.68943,10.6695 v 27.222 h -7.42872 v -27.222 z"
           style="font-style:normal;font-variant:normal;font-weight:bold;font-stretch:normal;font-size:49.8572px;line-height:1.25;font-family:'Noto Sans';-inkscape-font-specification:'Noto Sans Bold';letter-spacing:-2.84898px;stroke-width:1.65242px"
           id="path900" />
        <path
           d="m 229.37789,1141.2776 q 5.4843,0 8.37601,2.3932 2.94158,2.3433 2.94158,7.2293 v 18.148 h -5.18515 l -1.44586,-3.6894 h -0.19943 q -1.745,2.1937 -3.68943,3.1908 -1.94443,0.9972 -5.33472,0.9972 -3.63958,0 -6.03272,-2.094 -2.39315,-2.094 -2.39315,-6.5313 0,-4.3376 3.04129,-6.3817 3.04129,-2.0442 9.12387,-2.2935 l 4.73643,-0.1496 v -1.1965 q 0,-2.1439 -1.14671,-3.141 -1.09686,-0.9972 -3.09115,-0.9972 -1.99429,0 -3.88886,0.5983 -1.89458,0.5484 -3.78915,1.396 l -2.443,-5.0356 q 2.14386,-1.0968 4.83615,-1.745 2.69229,-0.698 5.584,-0.698 z m 3.93872,15.1566 -2.89172,0.1 q -3.58971,0.1 -4.98572,1.2963 -1.396,1.1966 -1.396,3.141 0,1.6952 0.99715,2.443 0.99714,0.698 2.59257,0.698 2.39315,0 4.03843,-1.396 1.64529,-1.4458 1.64529,-4.0384 z"
           style="font-style:normal;font-variant:normal;font-weight:bold;font-stretch:normal;font-size:49.8572px;line-height:1.25;font-family:'Noto Sans';-inkscape-font-specification:'Noto Sans Bold';letter-spacing:-2.84898px;stroke-width:1.65242px"
           id="path902" />
        <path
           d="m 260.93029,1141.3275 q 4.38744,0 7.02987,2.3931 2.64243,2.3433 2.64243,7.5783 v 17.7492 h -7.42872 v -15.9045 q 0,-2.9415 -1.04701,-4.3874 -1.047,-1.4957 -3.34043,-1.4957 -3.39029,0 -4.63672,2.3433 -1.24643,2.2934 -1.24643,6.631 v 12.8133 h -7.42872 v -27.222 h 5.68372 l 0.99714,3.49 h 0.39886 q 1.29629,-2.094 3.53986,-3.0413 2.29343,-0.9473 4.83615,-0.9473 z"
           style="font-style:normal;font-variant:normal;font-weight:bold;font-stretch:normal;font-size:49.8572px;line-height:1.25;font-family:'Noto Sans';-inkscape-font-specification:'Noto Sans Bold';letter-spacing:-2.84898px;stroke-width:1.65242px"
           id="path904" />
      </g>
      <g
         aria-label="X"
         transform="matrix(0,0.58147953,-1.719751,0,0,0)"
         id="text4194"
         style="font-style:normal;font-weight:normal;font-size:11.0752px;line-height:0%;font-family:sans-serif;text-align:center;letter-spacing:0px;word-spacing:0px;text-anchor:middle;fill:#000000;fill-opacity:1;stroke:none;stroke-width:1.5625px;stroke-linecap:butt;stroke-linejoin:miter;stroke-opacity:1">
        <path
           d="m 1436.8403,-176.81241 26.8545,48.10729 h 0.3295 l 26.8544,-48.10729 h 20.7586 l -36.2452,60.79311 37.0689,62.440626 h -21.7471 l -27.3486,-49.754796 h -0.3295 l -27.3487,49.754796 h -21.0881 l 37.0689,-62.440626 -36.2452,-60.79311 z"
           style="font-style:normal;font-variant:normal;font-weight:500;font-stretch:normal;font-size:168.705px;line-height:1.25;font-family:'Mgen+ 1pp';-inkscape-font-specification:'Mgen+ 1pp Medium';stroke-width:1.5625px"
           id="path907" />
      </g>
      <g
         aria-label="D"
         transform="matrix(0,0.52932867,-1.8891854,0,0,0)"
         id="text4194-8"
         style="font-style:normal;font-weight:normal;font-size:12.9942px;line-height:0%;font-family:sans-serif;text-align:center;letter-spacing:0px;word-spacing:0px;text-anchor:middle;fill:#1e20f6;fill-opacity:1;stroke:none;stroke-width:1.5625px;stroke-linecap:butt;stroke-linejoin:miter;stroke-opacity:1">
        <path
           d="m 1749.793,-106.42832 q 0,29.648191 -15.3563,44.85239 -15.2042,15.052157 -43.7881,15.052157 -15.8123,0 -29.6481,-2.28063 V -160.85935 q 13.6837,-2.28063 29.6481,-2.43267 28.4319,0 43.7881,14.74807 15.3563,14.74808 15.3563,42.11563 z m -16.4206,0 q 0,-21.13383 -10.947,-31.92881 -10.795,-10.94703 -31.7768,-10.94703 -6.9939,0 -12.4674,1.21634 v 86.51189 q 5.4735,1.064294 12.4674,1.064294 21.742,0 32.2329,-11.251107 10.4909,-11.251107 10.4909,-34.665577 z"
           style="font-style:normal;font-variant:normal;font-weight:500;font-stretch:normal;font-size:155.691px;line-height:1.25;font-family:'Mgen+ 1pp';-inkscape-font-specification:'Mgen+ 1pp Medium';fill:#1e20f6;fill-opacity:1;stroke-width:1.5625px"
           id="path910" />
      </g>
      <g
         aria-label="S"
         transform="matrix(-0.02998743,-0.51318494,1.9447619,-0.06594394,-0.43447686,-2.1220853)"
         id="text4136-1-8"
         style="font-style:normal;font-variant:normal;font-weight:bold;font-stretch:normal;font-size:11.2227px;line-height:0%;font-family:'Noto Sans';-inkscape-font-specification:'Noto Sans Bold';text-align:center;letter-spacing:0px;word-spacing:0px;text-anchor:middle;fill:#f61e20;fill-opacity:1;stroke:none;stroke-width:1.5625px;stroke-linecap:butt;stroke-linejoin:miter;stroke-opacity:1"
         inkscape:transform-center-x="-120.15631"
         inkscape:transform-center-y="20.60163">
        <path
           d="m -1844.613,138.87902 c -14.4137,6.1344 -49.0171,6.82929 -61.1603,5.24935 -13.0703,-1.05682 -26.5607,-4.63821 -37.0343,-10.90414 l 6.0023,-21.7563 c 5.8245,2.58865 16.6947,7.77894 23.684,9.9793 5.2485,2.42726 40.9745,10.47348 53.6872,-1.81095 14.6059,-25.276422 -29.7018,-39.685342 -53.371,-58.097426 -5.1473,-4.8361 -6.4968,-15.2055 -6.4968,-23.100893 0,-11.778373 8.2672,-20.969196 15.8168,-27.347421 11.0701,-5.9623367 24.9698,-8.9223008 38.9485,-8.9223008 7.2482,0 14.1081,0.776596 20.5798,2.329788 6.6011,1.553192 13.0727,3.7535473 19.4149,6.6010658 l -7.9601,19.997348 c -5.8245,-2.459221 -11.3901,-4.400712 -16.6968,-5.824471 -5.1773,-1.423759 -10.5488,-2.135639 -16.1144,-2.135639 -6.7305,0 -11.8431,1.488476 -15.3378,4.465427 -3.4947,2.976952 -5.242,6.924649 -5.242,11.84309 0,3.753547 0.9707,6.989364 2.9122,9.70745 1.9415,2.588653 6.5134,8.004739 10.5258,10.205094 12.031,8.310383 42.053,22.427823 45.5,31.846724 7.023,15.818564 8.6486,34.698414 -17.658,47.674904 z"
           style="font-style:normal;font-variant:normal;font-weight:600;font-stretch:normal;font-size:194.149px;line-height:1.25;font-family:'Noto Sans';-inkscape-font-specification:'Noto Sans Semi-Bold';fill:#f61e20;fill-opacity:1;stroke-width:1.5625px"
           id="path893"
           sodipodi:nodetypes="cccccccscsccccssscccc" />
      </g>
      <g
         aria-label="("
         transform="scale(1.1830359,0.84528289)"
         id="text4136-4-0"
         style="font-style:normal;font-variant:normal;font-weight:bold;font-stretch:normal;font-size:14.5797px;line-height:0%;font-family:'Noto Sans';-inkscape-font-specification:'Noto Sans Bold';text-align:center;letter-spacing:0px;word-spacing:0px;text-anchor:middle;fill:#000000;fill-opacity:1;stroke:none;stroke-width:1.5625px;stroke-linecap:butt;stroke-linejoin:miter;stroke-opacity:1">
        <path
           d="m 34.869564,1024.7621 q 0,-23.0803 6.621405,-44.45798 6.810588,-21.56686 21.188496,-38.78251 h 23.080326 q -12.864444,17.7832 -19.675032,39.16088 -6.621405,21.37771 -6.621405,43.89041 0,21.9453 6.621405,43.3229 6.621405,21.1885 19.485849,38.5934 H 62.679465 q -14.377908,-16.6481 -21.188496,-37.6474 -6.621405,-21.1885 -6.621405,-44.0797 z"
           style="font-style:normal;font-variant:normal;font-weight:bold;font-stretch:normal;font-size:189.183px;line-height:1.25;font-family:'Noto Sans';-inkscape-font-specification:'Noto Sans Bold';stroke-width:1.47412px"
           id="path913" />
      </g>
    </g>
  </g>
</svg>
