<svg xmlns="http://www.w3.org/2000/svg" viewBox="0 0 255.99999 255.99999"><g transform="matrix(.64 0 0 .64 0 -417.51175)" stroke-width="1.5625"><circle cx="200" cy="852.36224" r="200" fill="#fff"/><g style="line-height:125%;text-align:center"><path d="M74.0777777 795.79139415h27.27391227l38.2883733-96.97953261h1.04899573l15.21045553 27.84884639 33.83013851 57.49969244h18.88193482l33.56787511-57.49969244 15.47269578-27.8488464h1.04899574l38.02613303 96.97953262h28.32290801l-41.95986415-120.56915416H247.9489453l-34.87914583 60.93983656c-4.45821161 8.02702842-8.12970247 16.21786959-12.58793724 24.40871076h-1.31123599c-4.45824635-8.19084117-8.39197746-16.38168234-12.85021223-24.40871076l-35.40363791-60.93983656h-34.87913425z" style="-inkscape-font-specification:'Source Han Sans JP Medium'" font-weight="500" font-size="125" font-family="Source Han Sans JP" letter-spacing="0" word-spacing="0" text-anchor="middle" fill="#f61e20"/></g><g style="line-height:0%;-inkscape-font-specification:'Noto Sans Bold';text-align:center"><path d="M358.7480497 865.8365368q0 19.34948293-8.3254615 37.2597976-8.0941833 17.7504071-25.67013485 31.82277344h-27.98277241q15.49459219-14.71207983 23.5887755-32.62231135 8.32544947-18.07022226 8.32544947-36.62025043 0-19.02966776-8.32544947-37.09987339-8.09418331-18.07021394-23.82004166-33.10207568h28.21403857q17.57595155 14.55212236 25.67013486 32.7822522 8.3254615 18.07021394 8.3254615 37.57968761z" style="line-height:1.25;-inkscape-font-specification:'Noto Sans Bold'" font-size="192.307" aria-label=")" font-weight="700" font-family="Noto Sans" letter-spacing="0" word-spacing="0" text-anchor="middle"/></g><g aria-label="ay" style="line-height:0%;-inkscape-font-specification:'Noto Sans Bold';text-align:center" font-weight="700" font-size="57.9932" font-family="Noto Sans" letter-spacing="27.2177" word-spacing="0" text-anchor="middle"><path d="M159.05132488 787.44168585q8.25611912 0 12.60935263 2.15080235 4.42827208 2.1060648 4.42827208 6.49745366v16.31066322h-7.80578418l-2.17661028-3.31591043h-.30021899q-2.62695817 1.97162033-5.55412238 2.86776222-2.92717716.89621916-8.03095165.89621916-5.47907088 0-9.08173751-1.88199069-3.60266664-1.88199069-3.60266664-5.87004617 0-3.89842583 4.57838804-5.7356017 4.57840098-1.83725313 13.73519-2.06124997l7.13028176-.13444446v-1.07540118q0-1.92688277-1.72627534-2.82302466-1.65122382-.89621916-4.65345249-.89621916-3.00222866 0-5.85434137.53770059-2.8521127.49296303-5.7042254 1.25466046l-3.67773109-4.52575607q3.22739614-.98577153 7.28039772-1.56828694 4.05300158-.62733023 8.40623509-.62733023zm5.92939288 13.62208302l-4.35322057.08962965q-5.40400642.08962964-7.50556519 1.16503081-2.10155877 1.07540118-2.10155877 2.82302467 0 1.52347211 1.50110786 2.19561716 1.50110786.62733023 3.90289856.62733023 3.60266663 0 6.07950884-1.25466046 2.47682927-1.29947527 2.47682927-3.6295369zM216.9435415 787.93457162h12.2340692l7.73073266 13.75652748q.60043797 1.03058635.9006699 2.06124997.30021898 1.03058636.450322 2.19569444h.22516748q.22516747-1.16510808.6004509-2.19569444.37528344-1.03066362.97572141-2.06124997l7.5806167-13.75652748h12.00891467l-17.33785663 27.6026846q-2.4017907 3.8087962-6.83006278 5.6907869-4.42828502 1.9268055-10.28262638 1.9268055-1.95145576 0-3.30244765-.1343672-1.35100485-.08962964-2.4017907-.2240741v-5.28753076q.75056687.08962964 1.95145575.17925928 1.20088888.08962965 2.47682927.08962965 3.52761512 0 5.55412238-1.29947528 2.02650726-1.25473773 3.07728018-3.04709877l.67550242-1.20984564z" style="line-height:1.25;-inkscape-font-specification:'Noto Sans Bold'"/></g><g style="line-height:0%;-inkscape-font-specification:'Noto Sans Bold';text-align:center"><path d="M257.20563 947.83722q7.98346 0 12.3274 4.22654 4.34394 4.16784 4.34394 11.38817 0 4.46134-1.93717 7.98346-1.93716 3.46341-5.63538 5.45927-3.75692 1.99587-9.09879 1.99587-7.98346 0-12.2687-4.16784-4.28524-4.16783-4.28524-11.44687 0-4.52004 1.93716-7.98345 1.93717-3.46342 5.63539-5.45928 3.69822-1.99587 8.98139-1.99587zm0 22.13062q4.75485 0 7.22033-1.52625 2.40678-1.58495 2.40678-5.10706 0-3.46342-2.40678-4.98967-2.46548-1.58495-7.22033-1.58495-4.75486 0-7.10293 1.58495-2.40678 1.52625-2.40678 5.04837 0 3.46341 2.40678 5.04836 2.34807 1.52625 7.10293 1.52625z" style="line-height:1.25;-inkscape-font-specification:'Noto Sans Bold'" font-size="58.7019" aria-label="o" font-weight="700" font-family="Noto Sans" letter-spacing="0" word-spacing="0" text-anchor="middle"/></g><g aria-label="Musician" style="line-height:0%;-inkscape-font-specification:'Noto Sans Bold';text-align:center" font-weight="700" font-size="12.2738" font-family="Noto Sans" letter-spacing="0" word-spacing="0" text-anchor="middle"><path d="M104.07085781 1013.06987971l-9.89576303-24.1948223h-.23013426q.05753674.86406366.17260099 2.59227763.11506194 1.72821397.2301331 3.71562104.11507349 1.98740708.11507349 3.54282565v14.34409798h-7.76702944v-30.84839843H98.5476412l9.7231632 23.58995174h.17260099l10.29849713-23.58995174h11.85189909v30.84839843h-8.11221872v-14.60329108q0-1.46902087.0575829-3.37003025.1150504-1.90100937.17259867-3.58598116.1150504-1.72821397.17259868-2.59236429h-.23013542l-10.58616582 24.15166678z" style="-inkscape-font-specification:'Noto Sans Bold'" fill="#f61e20"/><path d="M166.00806884 989.47992797v23.58995174h-6.55881907l-1.1506771-3.02435279h-.4602593q-1.49587445 1.81461168-4.14241446 2.63551981-2.58901482.82090814-5.52321545.82090814-5.06295615 0-8.11223026-2.03064925-3.04927412-2.07389143-3.04927412-6.61042061v-15.38095704h8.57248956v13.78238294q0 2.54912211 1.2082023 3.84526093 1.20821384 1.25298329 3.85475385 1.25298329 3.91227905 0 5.35061677-1.98749373 1.43833772-2.03064925 1.43833772-5.78942582v-11.10370761zM193.61590676 1006.07062612q0 3.58606782-3.39447147 5.53031938-3.33694628 1.90100937-10.01083882 1.90100937-3.27940953 0-5.63827739-.34567746-2.3588794-.30243528-4.71774725-1.03694571v-5.31419514q2.53146654.86406365 5.46567871 1.42577869 2.93421217.56162838 5.17801809.56162838 2.47394133 0 3.56708169-.56162838 1.09312882-.56171504 1.09312882-1.46902087 0-.60487056-.4602593-1.08010124-.4027341-.47523068-1.84107182-1.08010123-1.43833771-.60487056-4.48762337-1.55541858-2.99173737-.95046135-4.89034593-1.8577672-1.84107181-.950548-2.76160195-2.24668682-.92054168-1.339381-.92054168-3.32678807 0-3.28363254 3.39448301-4.92536216 3.39447148-1.64181627 9.0327604-1.64181627 2.93420064 0 5.58074065.43207516 2.64655156.4319885 5.46569025 1.4257787l-2.58901481 4.62292687q-2.30133112-.73451043-4.37253836-1.20974111-2.07120723-.51847286-4.1999512-.51847286-3.79720558 0-3.79720558 1.55533191 0 .56171504.4602593 1.03694572.51780758.43207516 1.89860856.95054801 1.43833771.51847286 4.1999512 1.38253652 2.70407676.82090814 4.66021052 1.72821397 1.9561453.86406366 2.99174891 2.20344465 1.09312882 1.339381 1.09312882 3.41318577zM201.31717514 980.23398755q1.89859702 0 3.27940954.69126825 1.38080097.64811274 1.38080097 2.46272441 0 1.7713695-1.38080097 2.46272441-1.38081252.69126826-3.27940954.69126826-1.9561453 0-3.33694627-.69126826-1.32327578-.69135491-1.32327578-2.4627244 0-1.81461168 1.32327578-2.46272442 1.38080098-.69126825 3.33694627-.69126825zm4.25747641 9.24594042v23.58995174H197.002162v-23.58995174zM224.0345979 1013.50195487q-7.0190899 0-10.87383222-2.89479957-3.7972171-2.8947129-3.7972171-9.20261158 0-4.32057826 1.95614529-7.04249577 1.95613375-2.72191751 5.40814196-4.01805633 3.50954496-1.29613881 8.05469353-1.29613881 3.22188433 0 5.58075218.47523068 2.4164046.47531733 4.19995121 1.12334341l-2.53147807 4.96860434q-2.0136705-.60487056-3.79721711-.99370353-1.72599834-.38883298-3.45200821-.38883298-6.673881 0-6.673881 7.1288068 0 3.54282565 1.72599833 5.22779745 1.78354661 1.6849718 4.94788267 1.6849718 2.70407675 0 4.77528399-.5183862 2.07120723-.56171504 4.02734099-1.5121764v5.48699054q-1.95613376.95054801-4.14240293 1.339381-2.12874398.43207515-5.40815351.43207515zM241.86176704 980.23398755q1.89860856 0 3.27940953.69126825 1.38080098.64811274 1.38080098 2.46272441 0 1.7713695-1.38080098 2.46272441-1.38080097.69126826-3.27940953.69126826-1.9561453 0-3.33694627-.69126826-1.32326424-.69135491-1.32326424-2.4627244 0-1.81461168 1.32326424-2.46272442 1.38080097-.69126825 3.33694627-.69126825zm4.25747641 9.24594042v23.58995174h-8.57248956v-23.58995174zM264.69426327 989.00461063q6.32869519 0 9.66562992 2.07389143 3.39448301 2.03064925 3.39448301 6.26474315v15.7266345h-5.98348628l-1.66847314-3.19714819h-.23013542q-2.0136705 1.90100938-4.2574764 2.76507303-2.24380592.86415032-6.15608497.86415032-4.19995121 0-6.96155317-1.81461167-2.7616135-1.81461168-2.7616135-5.6598726 0-3.75886323 3.50954496-5.53023272 3.50954495-1.77145615 10.52863486-1.98749373l5.4656787-.12963988v-1.03685906q0-1.85785385-1.32326423-2.7219175-1.26573904-.86415032-3.5670817-.86415032-2.30134265 0-4.48761183.51847286-2.18628071.47523068-4.37254989 1.20974111l-2.81913869-4.36373378q2.47394134-.95046136 5.58075219-1.5121764 3.10681085-.60487055 6.44374558-.60487055zm4.54514857 13.13435687l-3.33694627.08665767q-4.14240293.08665767-5.75335087 1.12334341-1.6109364 1.03694572-1.6109364 2.72191751 0 1.46902088 1.1506771 2.11704695 1.15066556.60487056 2.99173738.60487056 2.7616135 0 4.6602105-1.20974111 1.89860856-1.25289664 1.89860856-3.49958347zM301.10465694 989.0478528q5.06295615 0 8.11223026 2.07380478 3.04927411 2.03064925 3.04927411 6.56717843v15.3810437h-8.57248956v-13.7824696q0-2.54903545-1.20821384-3.80201875-1.2082023-1.29613881-3.8547423-1.29613881-3.91227906 0-5.35061678 2.03064925-1.43833771 1.98740707-1.43833771 5.7462703v11.10370761h-8.57248956v-23.58995174h6.55881906l1.15066556 3.02435278h.46027084q1.49587446-1.81461167 4.08487773-2.6355198 2.64654001-.82090814 5.58075219-.82090814z" style="line-height:1.25;-inkscape-font-specification:'Noto Sans Bold'" font-size="49.8572" letter-spacing="-2.84898"/></g><g style="line-height:0%;text-align:center"><path d="M304.07331891 835.49322233l-82.73256008 15.61534204v.1915975l82.73256008 15.6152839v12.07070096l-104.54901172-21.07584186-107.382329 21.55480655v-12.64549348l85.56586018-15.90265108v-.1915975l-85.56586018-15.90270922v-12.26229848l107.382329 21.55480655 104.54901172-21.07584186z" style="line-height:1.25;-inkscape-font-specification:'Mgen+ 1pp Medium'" font-weight="500" font-size="168.705" font-family="Mgen+ 1pp" aria-label="X" letter-spacing="0" word-spacing="0" text-anchor="middle"/></g><g style="line-height:0%;text-align:center"><path d="M201.0628283 926.21560147q-56.01092958 0-84.73448035-8.12852986-28.43631525-8.04801896-28.43631525-23.17829673 0-8.36990373 4.3085329-15.69358935h211.69256987q4.3085329 7.24317473 4.59576465 15.69358935 0 15.0498198-27.86183852 23.17829673-27.86185742 8.12852986-79.5642333 8.12852986zm0-8.69189436q39.92572307 0 60.31944168-5.79456095 20.68096925-5.714103 20.68096925-16.82037128 0-3.70207179-2.29789177-6.59935226H116.32834795q-2.01064869 2.89728047-2.01064869 6.59935226 0 11.50866394 21.25542708 17.06179808 21.25542708 5.55313415 65.48970195 5.55313415z" style="line-height:1.25;-inkscape-font-specification:'Mgen+ 1pp Medium'" font-weight="500" font-size="155.691" font-family="Mgen+ 1pp" aria-label="D" letter-spacing="0" word-spacing="0" text-anchor="middle" fill="#1e20f6"/></g><g style="line-height:0%;-inkscape-font-specification:'Noto Sans Bold';text-align:center"><path d="M324.96735316 935.34729667c12.36217722 6.99236726 14.75123985 24.70448723 12.0427761 31.04038206-1.66331857 6.777172-8.22372697 13.93641308-20.09539255 19.72450698l-42.49081688-1.64559383c4.85964611-3.15975146 14.62755499-9.08044257 18.69714014-12.81234648 4.56305374-2.85351424 19.13970491-21.71815886-5.13180771-27.43204133-49.59461588-5.82870106-76.28786047 17.85952426-111.38520145 31.2203666-9.25070873 2.96042834-29.37625474 4.3367705-44.73091423 4.85742383-22.90613105.77671232-41.02800553-2.85981113-53.6585276-6.31354687-11.9272891-5.28782863-18.1005308-12.22575365-18.51971608-19.39941197-.21735489-3.71966708 1.08722865-7.29127625 3.91374763-10.71487883 2.8226386-3.4900087 6.9077391-6.95623646 12.2552983-10.39873457l39.12878344 2.76629952c-4.60793752 3.1512164-8.2167772 6.13542807-10.82651516 8.95263487-2.61361834 2.75080067-3.83697796 5.55431775-3.67007992 8.41049985.2018304 3.45399124 3.24987554 5.9795446 9.1441335 7.57666012 5.8942599 1.59711547 13.62398765 2.23347682 23.18918432 1.90913544 7.2997552-.24752368 13.56354001-.95905482 18.7913495-2.13464468 4.97609314-1.16705454 15.3719913-3.87044282 19.53083632-6.07464615 15.80093746-6.72214741 42.35571427-23.0599453 60.5698674-25.45001323 30.55273886-4.64723626 67.22080426-6.7264814 93.24585493 5.91794867z" style="line-height:1.25;-inkscape-font-specification:'Noto Sans Semi-Bold'" font-weight="600" font-size="194.149" aria-label="S" font-family="Noto Sans" letter-spacing="0" word-spacing="0" text-anchor="middle" fill="#f61e20"/></g><g style="line-height:0%;-inkscape-font-specification:'Noto Sans Bold';text-align:center"><path d="M41.25194603 866.21386945q0-19.50938269 7.83335982-37.57956982 8.0571701-18.23009775 25.06675144-32.78219213h27.30485424q-15.21909909 15.03183469-23.27626919 33.10202182-7.83335982 18.07021249-7.83335982 37.0998126 0 18.54998661 7.83335982 36.62010612 7.83335982 17.91027652 23.0524589 32.62234069H74.1520573q-17.00958133-14.07235408-25.06675144-31.82270307-7.83335982-17.91027652-7.83335982-37.25981621z" style="line-height:1.25;-inkscape-font-specification:'Noto Sans Bold'" font-size="189.183" aria-label="(" font-weight="700" font-family="Noto Sans" letter-spacing="0" word-spacing="0" text-anchor="middle"/></g></g></svg>